<svg width="15" height="15" viewBox="0 0 19 19" fill="none" xmlns="http://www.w3.org/2000/svg"> <path d="M3.46038 15.2C3.50788 15.2 3.55538 15.1952 3.60288 15.1881L7.59762 14.4875C7.64512 14.478 7.69025 14.4566 7.7235 14.421L17.7911 4.35337C17.8131 4.3314 17.8306 4.3053 17.8425 4.27657C17.8544 4.24784 17.8606 4.21704 17.8606 4.18594C17.8606 4.15483 17.8544 4.12403 17.8425 4.0953C17.8306 4.06657 17.8131 4.04047 17.7911 4.0185L13.8439 0.068875C13.7988 0.02375 13.7394 0 13.6752 0C13.6111 0 13.5518 0.02375 13.5066 0.068875L3.439 10.1365C3.40337 10.1721 3.382 10.2149 3.3725 10.2624L2.67188 14.2571C2.64877 14.3844 2.65703 14.5153 2.69593 14.6386C2.73483 14.7619 2.8032 14.8739 2.89512 14.9649C3.05187 15.1169 3.249 15.2 3.46038 15.2ZM5.06113 11.058L13.6752 2.44625L15.4161 4.18712L6.802 12.7989L4.69062 13.1717L5.06113 11.058ZM18.24 17.195H0.76C0.339625 17.195 0 17.5346 0 17.955V18.81C0 18.9145 0.0855 19 0.19 19H18.81C18.9145 19 19 18.9145 19 18.81V17.955C19 17.5346 18.6604 17.195 18.24 17.195Z" fill="white"/> </svg>