<svg width="28" height="38" viewBox="0 0 28 38" fill="none" xmlns="http://www.w3.org/2000/svg">
<path d="M19.8964 0.467159L19.8964 0.467178L27.532 8.1033C27.5321 8.10334 27.5321 8.10338 27.5321 8.10342C27.673 8.24538 27.75 8.43976 27.75 8.62772V36.3329C27.75 36.7423 27.4182 37.0741 27.0089 37.0741H0.99115C0.581809 37.0741 0.25 36.7423 0.25 36.3329V0.991151C0.25 0.581809 0.581809 0.25 0.99115 0.25H19.3722C19.5771 0.25 19.762 0.332739 19.8964 0.467159ZM26.0177 35.5918H26.2677V35.3418V9.61887V9.36887H26.0177H26.0056H25.9934H25.9811H25.9688H25.9565H25.944H25.9316H25.919H25.9065H25.8938H25.8811H25.8684H25.8556H25.8427H25.8298H25.8169H25.8038H25.7908H25.7777H25.7645H25.7513H25.738H25.7247H25.7113H25.6979H25.6844H25.6709H25.6573H25.6437H25.63H25.6163H25.6026H25.5888H25.5749H25.561H25.5471H25.5331H25.519H25.5049H25.4908H25.4766H25.4624H25.4481H25.4338H25.4195H25.4051H25.3907H25.3762H25.3616H25.3471H25.3325H25.3178H25.3031H25.2884H25.2736H25.2588H25.244H25.2291H25.2142H25.1992H25.1842H25.1691H25.1541H25.1389H25.1238H25.1086H25.0934H25.0781H25.0628H25.0474H25.0321H25.0167H25.0012H24.9857H24.9702H24.9547H24.9391H24.9235H24.9079H24.8922H24.8765H24.8607H24.845H24.8291H24.8133H24.7974H24.7816H24.7656H24.7497H24.7337H24.7177H24.7016H24.6856H24.6695H24.6533H24.6372H24.621H24.6048H24.5886H24.5723H24.556H24.5397H24.5234H24.507H24.4906H24.4742H24.4578H24.4413H24.4248H24.4083H24.3918H24.3752H24.3587H24.3421H24.3255H24.3088H24.2922H24.2755H24.2588H24.2421H24.2254H24.2086H24.1918H24.175H24.1582H24.1414H24.1245H24.1077H24.0908H24.0739H24.057H24.0401H24.0231H24.0062H23.9892H23.9722H23.9552H23.9382H23.9211H23.9041H23.887H23.87H23.8529H23.8358H23.8187H23.8016H23.7844H23.7673H23.7501H23.733H23.7158H23.6986H23.6814H23.6642H23.647H23.6298H23.6126H23.5953H23.5781H23.5608H23.5436H23.5263H23.5091H23.4918H23.4745H23.4572H23.4399H23.4226H23.4053H23.388H23.3707H23.3534H23.3361H23.3188H23.3015H23.2842H23.2669H23.2495H23.2322H23.2149H23.1976H23.1802H23.1629H23.1456H23.1283H23.1109H23.0936H23.0763H23.059H23.0417H23.0244H23.0071H22.9897H22.9724H22.9552H22.9379H22.9206H22.9033H22.886H22.8687H22.8515H22.8342H22.817H22.7997H22.7825H22.7652H22.748H22.7308H22.7136H22.6964H22.6792H22.662H22.6448H22.6277H22.6105H22.5934H22.5763H22.5591H22.542H22.5249H22.5079H22.4908H22.4737H22.4567H22.4397H22.4226H22.4056H22.3887H22.3717H22.3547H22.3378H22.3209H22.3039H22.2871H22.2702H22.2533H22.2365H22.2196H22.2028H22.186H22.1693H22.1525H22.1358H22.1191H22.1024H22.0857H22.0691H22.0524H22.0358H22.0192H22.0027H21.9861H21.9696H21.9531H21.9366H21.9202H21.9037H21.8873H21.8709H21.8546H21.8382H21.8219H21.8057H21.7894H21.7732H21.757H21.7408H21.7246H21.7085H21.6924H21.6764H21.6603H21.6443H21.6283H21.6124H21.5965H21.5806H21.5647H21.5489H21.5331H21.5173H21.5016H21.4859H21.4702H21.4546H21.4389H21.4234H21.4078H21.3923H21.3769H21.3614H21.346H21.3306H21.3153H21.3H21.2848H21.2695H21.2543H21.2392H21.2241H21.209H21.194H21.179H21.164H21.1491H21.1342H21.1193H21.1045H21.0898H21.0751H21.0604H21.0457H21.0311H21.0166H21.0021H20.9876H20.9731H20.9588H20.9444H20.9301H20.9159H20.9016H20.8875H20.8733H20.8593H20.8452H20.8312H20.8173H20.8034H20.7896H20.7758H20.762H20.7483H20.7346H20.721H20.7075H20.694H20.6805H20.6671H20.6537H20.6404H20.6271H20.6139H20.6008H20.5877H20.5746H20.5616H20.5487H20.5358H20.5229H20.5101H20.4974H20.4847H20.4721H20.4595H20.447H20.4345H20.4221H20.4097H20.3974H20.3852H20.373H20.3609H20.3488H20.3368H20.3249H20.313H20.3011H20.2894H20.2776H20.266H20.2544H20.2429H20.2314H20.22H20.2086H20.1973H20.1861H20.1749H20.1638H20.1528H20.1418H20.1309H20.12H20.1092H20.0985H20.0879H20.0773H20.0667H20.0563H20.0459H20.0356H20.0253H20.0151H20.005H19.9949H19.9849H19.975H19.9652H19.9554H19.9457H19.936H19.9264H19.9169H19.9075H19.8981H19.8888H19.8796H19.8705H19.8614H19.8524H19.8435H19.8346H19.8258H19.8171H19.8085H19.7999H19.7914H19.783H19.7746H19.7664H19.7582H19.7501H19.7421H19.7341H19.7262H19.7184H19.7107H19.703H19.6955H19.688H19.6806H19.6732H19.666H19.6588H19.6517H19.6447H19.6378H19.6309H19.6242H19.6175H19.6109H19.6044H19.5979H19.5916H19.5853H19.5791H19.573H19.567H19.5611H19.5552H19.5495H19.5438H19.5382H19.5327H19.5273H19.522H19.5167H19.5116H19.5065H19.5015H19.4966H19.4918H19.4871H19.4825H19.478H19.4735H19.4692H19.4649H19.4608H19.4567H19.4527H19.4488H19.445H19.4413H19.4377H19.4342H19.4307H19.4274H19.4242H19.421H19.418H19.415H19.4122H19.4094H19.4067H19.4042H19.4017H19.3993H19.397H19.3949H19.3928H19.3908H19.3889H19.3871H19.3854H19.3838H19.3824H19.381H19.3797H19.3785H19.3774H19.3764H19.3756H19.3748H19.3741H19.3735H19.3731H19.3727H19.3724H19.3723L19.3722 9.61887V9.36887C18.9629 9.36887 18.6311 9.03706 18.6311 8.62772V5.56566C18.6311 5.15632 18.9629 4.82451 19.3722 4.82451C19.7816 4.82451 20.1134 5.15632 20.1134 5.56566V7.63657V7.88657H20.3634H24.616H25.2196L24.7928 7.45979L19.1385 1.80552L19.0653 1.7323H18.9617H1.9823H1.7323V1.9823V35.3418V35.5918H1.9823H26.0177Z" fill="#252525" stroke="white" stroke-width="0.5"/>
<path d="M8.98355 10.139L8.98356 10.139C9.27296 9.84954 9.74223 9.84949 10.0318 10.139C10.3212 10.4284 10.3212 10.8976 10.0318 11.1871L7.35592 13.8631C7.35592 13.8631 7.35592 13.8632 7.35592 13.8632C7.21691 14.0022 7.02841 14.0802 6.83181 14.0802C6.63524 14.0802 6.4467 14.0021 6.30777 13.8632L6.30774 13.8631L5.32452 12.8799C5.03505 12.5904 5.03507 12.1212 5.32451 11.8318L5.32453 11.8318C5.61394 11.5423 6.08313 11.5423 6.3726 11.8318L6.65493 12.1141L6.83171 12.2909L7.00849 12.1141L8.98355 10.139Z" fill="#252525" stroke="white" stroke-width="0.5"/>
<path d="M22.1511 14.078H21.8217C21.4124 14.078 21.0806 13.7462 21.0806 13.3369C21.0806 12.9275 21.4124 12.5957 21.8217 12.5957H22.1511C22.5604 12.5957 22.8922 12.9275 22.8922 13.3369C22.8922 13.7462 22.5604 14.078 22.1511 14.078Z" fill="#252525" stroke="white" stroke-width="0.5"/>
<path d="M11.6426 13.3369C11.6426 12.9275 11.9744 12.5957 12.3837 12.5957H18.8068C19.2161 12.5957 19.5479 12.9275 19.5479 13.3369C19.5479 13.7462 19.2161 14.078 18.8068 14.078H12.3837C11.9744 14.078 11.6426 13.7462 11.6426 13.3369Z" fill="#252525" stroke="white" stroke-width="0.5"/>
<path d="M22.1511 20.1718H21.8217C21.4124 20.1718 21.0806 19.8399 21.0806 19.4306C21.0806 19.0213 21.4124 18.6895 21.8217 18.6895H22.1511C22.5604 18.6895 22.8922 19.0213 22.8922 19.4306C22.8922 19.8399 22.5604 20.1718 22.1511 20.1718Z" fill="#252525" stroke="white" stroke-width="0.5"/>
<path d="M12.3837 18.6895H18.8068C19.2161 18.6895 19.5479 19.0213 19.5479 19.4306C19.5479 19.8399 19.2161 20.1718 18.8068 20.1718H12.3837C11.9744 20.1718 11.6426 19.8399 11.6426 19.4306C11.6426 19.0213 11.9744 18.6895 12.3837 18.6895Z" fill="#252525" stroke="white" stroke-width="0.5"/>
<path d="M22.1511 26.2714H21.8217C21.4124 26.2714 21.0806 25.9396 21.0806 25.5302C21.0806 25.1209 21.4124 24.7891 21.8217 24.7891H22.1511C22.5604 24.7891 22.8922 25.1209 22.8922 25.5302C22.8922 25.9396 22.5604 26.2714 22.1511 26.2714Z" fill="#252525" stroke="white" stroke-width="0.5"/>
<path d="M12.3837 24.7891H18.8068C19.2161 24.7891 19.5479 25.1209 19.5479 25.5302C19.5479 25.9396 19.2161 26.2714 18.8068 26.2714H12.3837C11.9744 26.2714 11.6426 25.9396 11.6426 25.5302C11.6426 25.1209 11.9744 24.7891 12.3837 24.7891Z" fill="#252525" stroke="white" stroke-width="0.5"/>
<path d="M22.1511 32.3632H21.8217C21.4124 32.3632 21.0806 32.0314 21.0806 31.622C21.0806 31.2127 21.4124 30.8809 21.8217 30.8809H22.1511C22.5604 30.8809 22.8922 31.2127 22.8922 31.622C22.8922 32.0314 22.5604 32.3632 22.1511 32.3632Z" fill="#252525" stroke="white" stroke-width="0.5"/>
<path d="M12.3837 30.8809H18.8068C19.2161 30.8809 19.5479 31.2127 19.5479 31.622C19.5479 32.0314 19.2161 32.3632 18.8068 32.3632H12.3837C11.9744 32.3632 11.6426 32.0314 11.6426 31.622C11.6426 31.2127 11.9744 30.8809 12.3837 30.8809Z" fill="#252525" stroke="white" stroke-width="0.5"/>
<path d="M7.35675 19.9549L7.35672 19.9549C7.21779 20.0939 7.02925 20.172 6.83268 20.172C6.63616 20.172 6.44764 20.0938 6.30866 19.9549C6.30866 19.9549 6.30866 19.9549 6.30866 19.9549L5.32544 18.9716L5.32544 18.9716C5.03604 18.6822 5.03604 18.2129 5.3255 17.9234C5.61487 17.634 6.08416 17.6341 6.37361 17.9235C6.37361 17.9235 6.37362 17.9235 6.37362 17.9235L6.65594 18.2059L6.83272 18.3827L7.00951 18.2059L8.98458 16.2307L8.98459 16.2307C9.27398 15.9413 9.74319 15.9413 10.0327 16.2308C10.3221 16.5202 10.3221 16.9895 10.0327 17.2789L7.35675 19.9549Z" fill="#252525" stroke="white" stroke-width="0.5"/>
<path d="M5.96257 24.3672L6.13932 24.1905L5.96258 24.0137L5.32552 23.3765L5.32548 23.3765C5.03607 23.0872 5.03606 22.6179 5.32551 22.3284C5.61492 22.039 6.08411 22.039 6.37358 22.3284L6.37359 22.3284L7.01075 22.9656L7.18752 23.1423L7.36429 22.9655L8.0014 22.3284L8.00142 22.3284C8.29082 22.039 8.76008 22.039 9.04954 22.3284C9.33899 22.6178 9.339 23.0871 9.04958 23.3765C9.04957 23.3765 9.04957 23.3765 9.04957 23.3765L8.41246 24.0137L8.23572 24.1904L8.41246 24.3672L9.04952 25.0044L9.04954 25.0044C9.33898 25.2938 9.339 25.763 9.04953 26.0525L9.04951 26.0525C8.90478 26.1973 8.71558 26.2696 8.52547 26.2696C8.33534 26.2696 8.14611 26.1973 8.00145 26.0525L8.0014 26.0525L7.36429 25.4154L7.18751 25.2386L7.01074 25.4154L6.37368 26.0525C6.22888 26.1973 6.03967 26.2696 5.84957 26.2696C5.65945 26.2696 5.47024 26.1973 5.3255 26.0525L5.32549 26.0525C5.03605 25.7631 5.03603 25.2939 5.32546 25.0044C5.32546 25.0044 5.32546 25.0044 5.32546 25.0044L5.96257 24.3672Z" fill="#252525" stroke="white" stroke-width="0.5"/>
<path d="M6.65493 30.3992L6.83171 30.576L7.00849 30.3992L8.98355 28.4241C9.27294 28.1347 9.7422 28.1347 10.0318 28.4241C10.3212 28.7135 10.3213 29.1827 10.0318 29.4722L7.35592 32.1482C7.35592 32.1482 7.35592 32.1482 7.35592 32.1482C7.21692 32.2872 7.02841 32.3652 6.83181 32.3652C6.63521 32.3652 6.44669 32.2872 6.30779 32.1482L6.30774 32.1482L5.32452 31.1649L5.32451 31.1649C5.03506 30.8755 5.03506 30.4063 5.32451 30.1169L5.32453 30.1169C5.61393 29.8274 6.08313 29.8274 6.3726 30.1169L6.65493 30.3992Z" fill="#252525" stroke="white" stroke-width="0.5"/>
</svg>
