<svg width="16" height="18" viewBox="0 0 16 18" fill="none" xmlns="http://www.w3.org/2000/svg">
<path d="M12.4668 0.00195312L15.0879 2.63131L15.0777 2.64099L12.489 2.64294L12.4648 0.00390581L12.4668 0.00195312Z" fill="#F1F1F1"/>
<path d="M5.42904 4.15313C5.42904 4.65201 5.15036 4.88765 4.72261 4.88428C4.66408 4.88428 4.59871 4.88428 4.55859 4.8751V3.50909C4.59871 3.49991 4.66696 3.49023 4.77244 3.49023C5.17791 3.49028 5.43197 3.71962 5.42904 4.15313Z" fill="#F1F1F1"/>
<path d="M3.31567 3.79066C3.31567 4.00451 3.1608 4.13179 2.9102 4.13179C2.84195 4.13179 2.79211 4.12841 2.75195 4.11923V3.50275C2.7863 3.49356 2.85114 3.48438 2.94694 3.48438C3.18258 3.48438 3.31567 3.59856 3.31567 3.79066Z" fill="#F1F1F1"/>
<path d="M1.74196 1.83789H9.87096V6.53143H1.74196H1.72212H0V1.83789H1.72208H1.74196Z" fill="#F1F1F1"/>
<path d="M8.64378 8.95492C8.64954 9.44218 8.33793 10.3929 8.33793 10.3929C8.23045 10.2797 8.01562 9.67391 8.01562 9.11357C8.01562 8.55327 8.19664 8.40039 8.33793 8.40039C8.47967 8.40039 8.63787 8.46815 8.64378 8.95492Z" fill="#DC1D00"/>
<path d="M12.0376 13.2046C12.0376 13.8482 10.8714 13.5859 10.1543 12.9031C10.1543 12.9031 12.0376 12.5615 12.0376 13.2046Z" fill="#DC1D00"/>
<path d="M5.27013 15.3242C4.69287 14.9787 6.48174 13.9147 6.80449 13.8809C6.80449 13.8808 5.87449 15.6856 5.27013 15.3242Z" fill="#DC1D00"/>
<path d="M8.60961 11.4531C8.93774 12.0643 9.58896 12.7833 9.58896 12.7833C9.58896 12.7833 9.33974 12.8114 8.76063 12.9531C8.18138 13.0949 7.89062 13.242 7.89062 13.242C7.89062 13.242 7.89063 13.242 8.12822 12.7098C8.36625 12.1775 8.60961 11.4531 8.60961 11.4531Z" fill="#DC1D00"/>
<path d="M15.097 2.64143V18H1.74219V6.53224H9.87119V1.8387H1.74219V0H12.4643L12.4662 0.00239621L12.4643 0.00430437L12.4885 2.64334L15.0772 2.64138L15.0873 2.63171L15.097 2.64143Z" fill="#DC1D00"/>
<path d="M6.80443 13.8808C6.48173 13.9146 4.69282 14.9786 5.27007 15.3241C5.87443 15.6856 6.80443 13.8808 6.80443 13.8808ZM10.1538 12.9033C10.8708 13.5861 12.037 13.8484 12.037 13.2048C12.037 12.5617 10.1538 12.9033 10.1538 12.9033ZM9.58955 12.7824C9.58955 12.7824 8.93828 12.0634 8.61021 11.4522C8.61021 11.4522 8.36685 12.1765 8.12877 12.7088C7.89117 13.241 7.89117 13.241 7.89117 13.241C7.89117 13.241 8.18197 13.0939 8.76118 12.9521C9.34034 12.8105 9.58955 12.7824 9.58955 12.7824ZM8.33831 10.3935C8.33831 10.3935 8.64988 9.44271 8.64416 8.95545C8.63825 8.46869 8.4801 8.40092 8.33831 8.40092C8.19702 8.40092 8.016 8.5538 8.016 9.1141C8.016 9.67444 8.23083 10.2803 8.33831 10.3935ZM8.72927 11.1295C9.04625 11.8146 9.91816 12.6972 9.91816 12.6972C9.91816 12.6972 10.2008 12.6237 11.3669 12.5956C12.5335 12.5675 12.5843 13.2236 12.5896 13.2803C12.5954 13.3374 12.6409 13.858 11.7124 13.8919C10.7843 13.9258 9.82142 12.958 9.82142 12.958C9.82142 12.958 9.42558 13.0204 9.09751 13.0993C8.76943 13.1786 7.71606 13.4675 7.71606 13.4675C7.71606 13.4675 7.40445 14.0336 6.71395 14.939C6.02301 15.8448 5.2493 15.7771 5.02861 15.477C4.77216 15.1286 4.97008 14.7808 5.45685 14.3278C5.94362 13.875 7.0667 13.4994 7.0667 13.4994C7.0667 13.4994 7.29315 13.092 7.62509 12.3145C7.95698 11.5369 8.20815 10.7559 8.20815 10.7559C8.20815 10.7559 7.87959 10.0098 7.81569 9.37495C7.74411 8.66705 7.82345 8.19142 8.36685 8.18561C8.91028 8.17979 9.08007 8.5877 9.09702 9.29507C9.11393 10.0031 8.72927 11.1295 8.72927 11.1295Z" fill="white"/>
<path d="M7.48278 3.54197V3.14258H6.24023V5.22828H6.684V4.38512H7.4384V4.03011H6.684V3.54197H7.48278Z" fill="#A51600"/>
<path d="M5.57938 3.35003C5.37809 3.19809 5.1113 3.12695 4.71453 3.12695C4.476 3.12695 4.24391 3.14244 4.06641 3.17049V5.22113C4.19954 5.23662 4.36759 5.25206 4.61242 5.25206C5.0213 5.25206 5.36109 5.16544 5.58076 4.98256C5.78205 4.81224 5.93018 4.5364 5.93018 4.13674C5.93018 3.76859 5.79665 3.51117 5.57938 3.35003ZM4.69931 4.88342C4.64077 4.88342 4.59893 4.88342 4.51017 4.87424V3.50824C4.59893 3.49905 4.64366 3.48938 4.74918 3.48938C5.15465 3.48938 5.40867 3.71872 5.40574 4.15228C5.40574 4.65116 5.12701 4.8868 4.69931 4.88342Z" fill="#A51600"/>
<path d="M3.56177 3.29434C3.42243 3.18256 3.19527 3.12695 2.90393 3.12695C2.61602 3.12695 2.37922 3.14581 2.24609 3.17049V5.22765H2.73424V4.48368C2.77861 4.48998 2.84291 4.49335 2.90491 4.49335C3.18359 4.49335 3.42687 4.4251 3.58804 4.2732C3.7119 4.15565 3.78246 3.98191 3.78246 3.77774C3.78246 3.57307 3.69481 3.39982 3.56177 3.29434ZM2.90194 4.13097C2.83373 4.13097 2.77861 4.1276 2.73424 4.11842V3.50194C2.77861 3.49275 2.84291 3.48356 2.93868 3.48356C3.17436 3.48356 3.30741 3.59774 3.30741 3.78985C3.30741 4.0037 3.15258 4.13097 2.90194 4.13097Z" fill="#A51600"/>
</svg>
