<svg width="16" height="18" viewBox="0 0 16 18" fill="none" xmlns="http://www.w3.org/2000/svg">
<path d="M12.466 0.00195312L15.0871 2.63131L15.077 2.64099L12.4883 2.64294L12.4641 0.00390581L12.466 0.00195312Z" fill="#F1F1F1"/>
<path d="M5.42953 4.15313C5.42953 4.65201 5.15084 4.88765 4.7231 4.88428C4.66457 4.88428 4.5992 4.88428 4.55908 4.8751V3.50909C4.5992 3.49991 4.66745 3.49023 4.77293 3.49023C5.1784 3.49028 5.43246 3.71962 5.42953 4.15313Z" fill="#F1F1F1"/>
<path d="M3.3164 3.79066C3.3164 4.00451 3.16153 4.13179 2.91093 4.13179C2.84268 4.13179 2.79285 4.12841 2.75269 4.11923V3.50275C2.78703 3.49356 2.85187 3.48438 2.94768 3.48438C3.18332 3.48438 3.3164 3.59856 3.3164 3.79066Z" fill="#F1F1F1"/>
<path d="M1.74196 1.83789H9.87096V6.53143H1.74196H1.72212H0V1.83789H1.72208H1.74196Z" fill="#F1F1F1"/>
<path d="M8.64402 8.95492C8.64979 9.44218 8.33818 10.3929 8.33818 10.3929C8.2307 10.2797 8.01587 9.67391 8.01587 9.11357C8.01587 8.55327 8.19688 8.40039 8.33818 8.40039C8.47992 8.40039 8.63812 8.46815 8.64402 8.95492Z" fill="#DC1D00"/>
<path d="M12.0368 13.2046C12.0368 13.8482 10.8707 13.5859 10.1536 12.9031C10.1536 12.9031 12.0368 12.5615 12.0368 13.2046Z" fill="#DC1D00"/>
<path d="M5.26988 15.3242C4.69263 14.9787 6.4815 13.9147 6.80425 13.8809C6.80425 13.8808 5.87425 15.6856 5.26988 15.3242Z" fill="#DC1D00"/>
<path d="M8.6101 11.4531C8.93822 12.0643 9.58945 12.7833 9.58945 12.7833C9.58945 12.7833 9.34023 12.8114 8.76112 12.9531C8.18187 13.0949 7.89111 13.242 7.89111 13.242C7.89111 13.242 7.89111 13.242 8.12871 12.7098C8.36674 12.1775 8.6101 11.4531 8.6101 11.4531Z" fill="#DC1D00"/>
<path d="M15.0968 2.64143V18H1.74194V6.53224H9.87094V1.8387H1.74194V0H12.464L12.466 0.00239621L12.464 0.00430437L12.4882 2.64334L15.0769 2.64138L15.0871 2.63171L15.0968 2.64143Z" fill="#DC1D00"/>
<path d="M6.80419 13.8808C6.48148 13.9146 4.69257 14.9786 5.26982 15.3241C5.87419 15.6856 6.80419 13.8808 6.80419 13.8808ZM10.1535 12.9033C10.8706 13.5861 12.0368 13.8484 12.0368 13.2048C12.0368 12.5617 10.1535 12.9033 10.1535 12.9033ZM9.58931 12.7824C9.58931 12.7824 8.93804 12.0634 8.60996 11.4522C8.60996 11.4522 8.3666 12.1765 8.12852 12.7088C7.89093 13.241 7.89093 13.241 7.89093 13.241C7.89093 13.241 8.18173 13.0939 8.76093 12.9521C9.34009 12.8105 9.58931 12.7824 9.58931 12.7824ZM8.33807 10.3935C8.33807 10.3935 8.64964 9.44271 8.64391 8.95545C8.63801 8.46869 8.47985 8.40092 8.33807 8.40092C8.19677 8.40092 8.01576 8.5538 8.01576 9.1141C8.01576 9.67444 8.23059 10.2803 8.33807 10.3935ZM8.72903 11.1295C9.04601 11.8146 9.91792 12.6972 9.91792 12.6972C9.91792 12.6972 10.2005 12.6237 11.3666 12.5956C12.5332 12.5675 12.5841 13.2236 12.5893 13.2803C12.5952 13.3374 12.6407 13.858 11.7121 13.8919C10.7841 13.9258 9.82118 12.958 9.82118 12.958C9.82118 12.958 9.42534 13.0204 9.09726 13.0993C8.76919 13.1786 7.71582 13.4675 7.71582 13.4675C7.71582 13.4675 7.40421 14.0336 6.71371 14.939C6.02276 15.8448 5.24906 15.7771 5.02837 15.477C4.77192 15.1286 4.96984 14.7808 5.45661 14.3278C5.94337 13.875 7.06646 13.4994 7.06646 13.4994C7.06646 13.4994 7.29291 13.092 7.62485 12.3145C7.95674 11.5369 8.20791 10.7559 8.20791 10.7559C8.20791 10.7559 7.87935 10.0098 7.81544 9.37495C7.74386 8.66705 7.82321 8.19142 8.3666 8.18561C8.91004 8.17979 9.07982 8.5877 9.09677 9.29507C9.11368 10.0031 8.72903 11.1295 8.72903 11.1295Z" fill="white"/>
<path d="M7.48205 3.54197V3.14258H6.2395V5.22828H6.68327V4.38512H7.43767V4.03011H6.68327V3.54197H7.48205Z" fill="#A51600"/>
<path d="M5.57816 3.35003C5.37687 3.19809 5.11008 3.12695 4.71331 3.12695C4.47478 3.12695 4.24269 3.14244 4.06519 3.17049V5.22113C4.19832 5.23662 4.36637 5.25206 4.6112 5.25206C5.02008 5.25206 5.35987 5.16544 5.57954 4.98256C5.78083 4.81224 5.92896 4.5364 5.92896 4.13674C5.92896 3.76859 5.79543 3.51117 5.57816 3.35003ZM4.69808 4.88342C4.63955 4.88342 4.59771 4.88342 4.50895 4.87424V3.50824C4.59771 3.49905 4.64244 3.48938 4.74796 3.48938C5.15343 3.48938 5.40745 3.71872 5.40452 4.15228C5.40452 4.65116 5.12579 4.8868 4.69808 4.88342Z" fill="#A51600"/>
<path d="M3.56128 3.29434C3.42194 3.18256 3.19478 3.12695 2.90344 3.12695C2.61553 3.12695 2.37874 3.14581 2.24561 3.17049V5.22765H2.73375V4.48368C2.77812 4.48998 2.84243 4.49335 2.90442 4.49335C3.18311 4.49335 3.42638 4.4251 3.58755 4.2732C3.71141 4.15565 3.78197 3.98191 3.78197 3.77774C3.78197 3.57307 3.69432 3.39982 3.56128 3.29434ZM2.90145 4.13097C2.83324 4.13097 2.77812 4.1276 2.73375 4.11842V3.50194C2.77812 3.49275 2.84243 3.48356 2.93819 3.48356C3.17388 3.48356 3.30692 3.59774 3.30692 3.78985C3.30692 4.0037 3.15209 4.13097 2.90145 4.13097Z" fill="#A51600"/>
</svg>
